<?xml version="1.0" encoding="iso-8859-1"?>
<!-- Generator: Adobe Illustrator 19.0.0, SVG Export Plug-In . SVG Version: 6.00 Build 0)  -->
<svg version="1.1" id="Capa_1" xmlns="http://www.w3.org/2000/svg" xmlns:xlink="http://www.w3.org/1999/xlink" x="0px" y="0px"
	 viewBox="0 0 512 512" style="enable-background:new 0 0 512 512;" xml:space="preserve">
<path style="fill:#00C37A;" d="M256,512h210c24.814,0,46-21.186,46-46V256l-27.169-30H256l-30,56.24v202.592L256,512z"/>
<g>
	<path style="fill:#57555C;" d="M0,256v210c0,24.814,20.186,46,45,46h211V256l-24.364-30H30.004L0,256z"/>
	<path style="fill:#57555C;" d="M466,0H256l-30,26.24v206.327L256,256h256V45C512,20.186,490.814,0,466,0z"/>
</g>
<path style="fill:#7A7780;" d="M256,0H45C20.186,0,0,20.186,0,45v211h256V0z"/>
<path style="fill:#EDEDED;" d="M196,121h-45V76c0-8.291-6.709-15-15-15s-15,6.709-15,15v45H76c-8.291,0-15,6.709-15,15
	s6.709,15,15,15h45v45c0,8.291,6.709,15,15,15s15-6.709,15-15v-45h45c8.291,0,15-6.709,15-15S204.291,121,196,121z"/>
<path style="fill:#D8D7DA;" d="M436,151H316c-8.291,0-15-6.709-15-15s6.709-15,15-15h120c8.291,0,15,6.709,15,15
	S444.291,151,436,151z"/>
<path style="fill:#EDEDED;" d="M196,391H76c-8.291,0-15-6.709-15-15s6.709-15,15-15h120c8.291,0,15,6.709,15,15S204.291,391,196,391
	z"/>
<path style="fill:#D8D7DA;" d="M397.211,376l49.395-49.395c5.859-5.859,5.859-15.352,0-21.211s-15.352-5.859-21.211,0L376,354.789
	l-49.395-49.395c-5.859-5.859-15.352-5.859-21.211,0s-5.859,15.352,0,21.211L354.789,376l-49.395,49.395
	c-5.859,5.859-5.859,15.352,0,21.211c5.86,5.86,15.351,5.86,21.211,0L376,397.211l49.395,49.395c5.86,5.86,15.351,5.86,21.211,0
	c5.859-5.859,5.859-15.352,0-21.211L397.211,376z"/>
<g>
	<circle style="fill:#EDEDED;" cx="136" cy="316" r="15"/>
	<circle style="fill:#EDEDED;" cx="136" cy="436" r="15"/>
</g>
<g>
</g>
<g>
</g>
<g>
</g>
<g>
</g>
<g>
</g>
<g>
</g>
<g>
</g>
<g>
</g>
<g>
</g>
<g>
</g>
<g>
</g>
<g>
</g>
<g>
</g>
<g>
</g>
<g>
</g>
</svg>
